<svg width="74" height="74" viewBox="0 0 74 74" fill="none" xmlns="http://www.w3.org/2000/svg">
<circle cx="37" cy="37" r="37" fill="#0065F4"/>
<path d="M33.8735 42.928C34.6202 42.928 35.2828 42.8067 35.8615 42.564C36.4588 42.3027 36.9535 41.9387 37.3455 41.472C37.7562 41.0053 38.0642 40.4547 38.2695 39.82C38.4935 39.1667 38.6055 38.4573 38.6055 37.692V26.576H41.3495V37.692C41.3495 38.7747 41.1722 39.7733 40.8175 40.688C40.4815 41.6027 39.9869 42.396 39.3335 43.068C38.6989 43.74 37.9149 44.2627 36.9815 44.636C36.0668 45.0093 35.0308 45.196 33.8735 45.196C32.7162 45.196 31.6802 45.0093 30.7655 44.636C29.8508 44.2627 29.0668 43.74 28.4135 43.068C27.7788 42.396 27.2842 41.6027 26.9295 40.688C26.5935 39.7733 26.4255 38.7747 26.4255 37.692V26.576H29.1415V37.692C29.1415 38.4573 29.2442 39.1667 29.4495 39.82C29.6735 40.4547 29.9815 41.0053 30.3735 41.472C30.7842 41.92 31.2788 42.2747 31.8575 42.536C32.4548 42.7973 33.1268 42.928 33.8735 42.928ZM47.7808 31.896V45H45.2608V31.896H47.7808ZM48.2568 27.92C48.2568 28.3867 48.0794 28.788 47.7248 29.124C47.3888 29.4413 46.9968 29.6 46.5488 29.6C46.0634 29.6 45.6434 29.4413 45.2888 29.124C44.9528 28.788 44.7848 28.3867 44.7848 27.92C44.7848 27.4533 44.9528 27.0613 45.2888 26.744C45.6434 26.408 46.0634 26.24 46.5488 26.24C46.9968 26.24 47.3888 26.408 47.7248 26.744C48.0794 27.0613 48.2568 27.4533 48.2568 27.92Z" fill="white"/>
</svg>
